# xmcd
#
# Track frame offsets: 
#        150
#        25736
#        52691
#        72208
#        91228
#        114123
#        131931
#        151461
#        169266
#        193769
#        216229
#
# Disc length: 3053 seconds
#
# Revision: 0
# Processed by: cddbd v1.5.2PL0 Copyright (c) Steve Scherf et al.
# Submitted via: ExactAudioCopy v0.95a5
#
DISCID=910beb0b
DTITLE=Albert Lee - Live From Mars
DYEAR=2004
DGENRE=
TTITLE0=Country Boy
TTITLE1=Tear Stained Letter
TTITLE2=Luxury Liner
TTITLE3=Evangelina
TTITLE4=Till I Gain Control Again
TTITLE5=Restless
TTITLE6=My Baby Thinks He's a Train
TTITLE7=Just Becaus
TTITLE8=Seventeenth Summer
TTITLE9=Tear it Up
TTITLE10=Tiger Rag
EXTD=
EXTT0=
EXTT1=
EXTT2=
EXTT3=
EXTT4=
EXTT5=
EXTT6=
EXTT7=
EXTT8=
EXTT9=
EXTT10=
PLAYORDER=
